<svg width="326" height="27" viewBox="0 0 326 27" fill="none" xmlns="http://www.w3.org/2000/svg">
<path d="M14.12 0.989998H2.72L0.26 21H5.33L6.29 13.2H12.05L12.59 8.79H6.83L7.25 5.4H13.58L14.12 0.989998ZM34.239 0.989998H29.169L27.789 12.39C27.399 15.54 26.409 16.59 23.889 16.59C21.669 16.59 20.559 15.54 20.559 13.44C20.559 12.84 20.589 12.36 20.649 11.79L21.969 0.989998H16.929L15.609 11.79C15.459 12.93 15.369 14.01 15.369 14.55C15.369 18.81 18.519 21.39 23.709 21.39C26.649 21.39 29.109 20.58 30.549 19.14C31.839 17.88 32.349 16.35 32.829 12.57L34.239 0.989998ZM45.3629 5.4H49.5629L50.1029 0.989998H36.5429L36.0029 5.4H40.2929L38.3729 21H43.4429L45.3629 5.4ZM69.6882 0.989998H64.6182L63.2382 12.39C62.8482 15.54 61.8582 16.59 59.3382 16.59C57.1182 16.59 56.0082 15.54 56.0082 13.44C56.0082 12.84 56.0382 12.36 56.0982 11.79L57.4182 0.989998H52.3782L51.0582 11.79C50.9082 12.93 50.8182 14.01 50.8182 14.55C50.8182 18.81 53.9682 21.39 59.1582 21.39C62.0982 21.39 64.5582 20.58 65.9982 19.14C67.2882 17.88 67.7982 16.35 68.2782 12.57L69.6882 0.989998ZM83.2121 13.23C86.0921 12.21 87.4721 10.26 87.4721 7.2C87.4721 2.97 85.2221 0.989998 80.3921 0.989998H73.8821L71.4221 21H76.4921L77.4521 13.05L82.2521 21H88.1321L83.2121 13.23ZM78.4421 4.98H79.4021C81.5321 4.98 82.2821 5.58 82.2821 7.32C82.2821 9.24 81.1421 10.14 78.7121 10.14H77.8121L78.4421 4.98ZM103.67 0.989998H92.72L90.26 21H101.45L101.99 16.59H95.87L96.29 13.26H101.99L102.53 8.85H96.83L97.25 5.4H103.13L103.67 0.989998ZM115.652 9.87L115.172 13.86H119.792C119.372 15.75 117.662 16.98 115.472 16.98C112.382 16.98 110.192 14.67 110.192 11.4C110.192 7.74 112.622 4.89 115.742 4.89C117.992 4.89 119.492 5.91 120.512 8.16L124.892 6.45C123.242 2.55 120.272 0.6 115.922 0.6C109.592 0.6 105.002 5.22 105.002 11.58C105.002 17.34 109.112 21.39 114.902 21.39C119.312 21.39 122.852 19.14 124.292 15.42C124.922 13.74 125.222 12.06 125.252 9.87H115.652ZM138.961 0.569998C132.301 0.569998 127.621 4.98 127.621 11.25C127.621 17.31 132.031 21.39 138.541 21.39C144.991 21.39 149.401 16.92 149.401 10.41C149.401 4.56 145.171 0.569998 138.961 0.569998ZM138.691 5.37C142.021 5.37 144.211 7.59 144.211 10.95C144.211 14.25 141.811 16.59 138.421 16.59C135.061 16.59 132.811 14.37 132.811 11.07C132.811 7.8 135.301 5.37 138.691 5.37ZM172.071 0.989998H166.401L161.271 11.04C160.791 11.94 160.461 12.72 160.131 13.77C159.981 12.15 159.891 11.61 159.531 10.11L157.221 0.989998H151.821L157.071 21H161.331L172.071 0.989998ZM195.495 21L186.405 10.47L194.745 0.989998H191.625L182.775 11.31V0.989998H180.285V21H182.775V14.28L184.785 12L192.375 21H195.495ZM210.243 21V10.83C210.243 7.68 208.653 6.15 205.653 6.15C203.463 6.15 201.483 7.38 200.463 8.61V6.51H198.213V21H200.463V10.41C201.333 9.24 202.983 8.16 204.753 8.16C206.703 8.16 208.023 8.94 208.023 11.52V21H210.243ZM221.096 21.36C225.506 21.36 228.266 17.94 228.266 13.74C228.266 9.54 225.506 6.15 221.096 6.15C216.686 6.15 213.926 9.54 213.926 13.74C213.926 17.94 216.686 21.36 221.096 21.36ZM221.096 19.35C218.006 19.35 216.296 16.71 216.296 13.74C216.296 10.8 218.006 8.16 221.096 8.16C224.186 8.16 225.896 10.8 225.896 13.74C225.896 16.71 224.186 19.35 221.096 19.35ZM246.754 21L251.374 6.51H249.004L245.464 18.06L241.684 6.51H239.734L235.924 18.06L232.384 6.51H230.044L234.664 21H236.914L240.694 9.36L244.474 21H246.754ZM256.215 21V0.989998H253.965V21H256.215ZM267.273 21.36C269.613 21.36 271.563 20.55 273.033 19.11L271.953 17.64C270.783 18.84 269.133 19.5 267.453 19.5C264.333 19.5 262.443 17.22 262.263 14.49H273.963V13.92C273.963 9.57 271.383 6.15 267.003 6.15C262.863 6.15 259.863 9.54 259.863 13.74C259.863 18.27 262.953 21.36 267.273 21.36ZM271.743 12.81H262.233C262.353 10.62 263.883 8.01 266.973 8.01C270.273 8.01 271.713 10.68 271.743 12.81ZM290.357 21V0.989998H288.107V8.7C286.937 7.11 285.167 6.15 283.217 6.15C279.437 6.15 276.767 9.12 276.767 13.77C276.767 18.48 279.437 21.36 283.217 21.36C285.257 21.36 287.027 20.31 288.107 18.84V21H290.357ZM283.787 19.35C280.847 19.35 279.107 16.98 279.107 13.77C279.107 10.56 280.847 8.16 283.787 8.16C285.557 8.16 287.327 9.24 288.107 10.5V17.04C287.327 18.3 285.557 19.35 283.787 19.35ZM300.683 26.88C304.223 26.88 307.613 25.38 307.613 20.79V6.51H305.363V8.7C304.193 7.11 302.423 6.15 300.473 6.15C296.663 6.15 294.023 9.03 294.023 13.68C294.023 18.36 296.693 21.18 300.473 21.18C302.513 21.18 304.283 20.07 305.363 18.6V20.79C305.363 23.85 303.083 25.02 300.683 25.02C298.613 25.02 297.173 24.48 295.973 23.07L294.833 24.69C296.573 26.4 298.253 26.88 300.683 26.88ZM301.043 19.17C298.103 19.17 296.363 16.86 296.363 13.68C296.363 10.47 298.103 8.16 301.043 8.16C302.813 8.16 304.553 9.24 305.363 10.47V16.83C304.553 18.09 302.813 19.17 301.043 19.17ZM318.689 21.36C321.029 21.36 322.979 20.55 324.449 19.11L323.369 17.64C322.199 18.84 320.549 19.5 318.869 19.5C315.749 19.5 313.859 17.22 313.679 14.49H325.379V13.92C325.379 9.57 322.799 6.15 318.419 6.15C314.279 6.15 311.279 9.54 311.279 13.74C311.279 18.27 314.369 21.36 318.689 21.36ZM323.159 12.81H313.649C313.769 10.62 315.299 8.01 318.389 8.01C321.689 8.01 323.129 10.68 323.159 12.81Z" fill="white"/>
</svg>
