<svg width="13" height="13" viewBox="0 0 13 13" fill="none" xmlns="http://www.w3.org/2000/svg">
<path opacity="0.5" fill-rule="evenodd" clip-rule="evenodd" d="M3.00015 -6.2837e-07L12.0002 -1.5556e-06C12.5524 -1.30272e-06 13.0002 0.447714 13.0002 0.999998L13.0002 10C13.0002 10.5523 12.5524 11 12.0002 11C11.4479 11 11.0002 10.5523 11.0002 10L11.0002 3.41421L1.70726 12.7071C1.31673 13.0976 0.683569 13.0976 0.293044 12.7071C-0.09748 12.3166 -0.09748 11.6834 0.293044 11.2929L9.58594 2L3.00015 2C2.44787 2 2.00015 1.55228 2.00015 0.999999C2.00015 0.447715 2.44787 -9.65545e-07 3.00015 -6.2837e-07Z" fill="#C8C5D7"/>
</svg>
