<svg width="25" height="25" viewBox="0 0 25 25" fill="none" xmlns="http://www.w3.org/2000/svg">
<path fill-rule="evenodd" clip-rule="evenodd" d="M24.0607 0.93934C24.6464 1.52513 24.6464 2.47487 24.0607 3.06066L3.06066 24.0607C2.47487 24.6464 1.52513 24.6464 0.93934 24.0607C0.353553 23.4749 0.353553 22.5251 0.93934 21.9393L21.9393 0.93934C22.5251 0.353553 23.4749 0.353553 24.0607 0.93934Z" fill="#150810"/>
<path fill-rule="evenodd" clip-rule="evenodd" d="M0.93934 0.939339C1.52513 0.353552 2.47487 0.353552 3.06066 0.939339L24.0607 21.9393C24.6464 22.5251 24.6464 23.4749 24.0607 24.0607C23.4749 24.6464 22.5251 24.6464 21.9393 24.0607L0.93934 3.06066C0.353553 2.47487 0.353553 1.52513 0.93934 0.939339Z" fill="#150810"/>
</svg>
