<svg width="25" height="26" viewBox="0 0 25 26" fill="none" xmlns="http://www.w3.org/2000/svg">
<path opacity="0.5" fill-rule="evenodd" clip-rule="evenodd" d="M10.0002 5L19.0002 5C19.5524 5 20.0002 5.44771 20.0002 6L20.0002 15C20.0002 15.5523 19.5524 16 19.0002 16C18.4479 16 18.0002 15.5523 18.0002 15L18.0002 8.41421L8.70726 17.7071C8.31673 18.0976 7.68357 18.0976 7.29304 17.7071C6.90252 17.3166 6.90252 16.6834 7.29304 16.2929L16.5859 7L10.0002 7C9.44787 7 9.00015 6.55228 9.00015 6C9.00015 5.44771 9.44787 5 10.0002 5Z" fill="#C8C5D7"/>
<path opacity="0.5" fill-rule="evenodd" clip-rule="evenodd" d="M17.25 24C17.25 24.6904 16.6904 25.25 16 25.25L2 25.25C1.30964 25.25 0.75 24.6904 0.75 24L0.750001 10C0.750001 9.30964 1.30965 8.75 2 8.75C2.69036 8.75 3.25 9.30964 3.25 10L3.25 22.75L16 22.75C16.6904 22.75 17.25 23.3096 17.25 24Z" fill="#C8C5D7"/>
</svg>
